<svg version="1.1" xmlns="http://www.w3.org/2000/svg" xmlns:xlink="http://www.w3.org/1999/xlink" width="64.000000pt" height="64.000000pt" viewBox="0,0,256,256"><g fill="#ffffff" fill-rule="nonzero" stroke="none" stroke-width="1" stroke-linecap="butt" stroke-linejoin="miter" stroke-miterlimit="10" stroke-dasharray="" stroke-dashoffset="0" font-family="none" font-weight="none" font-size="none" text-anchor="none" style="mix-blend-mode: normal"><g transform="translate(0.64412,1.43811) scale(4,4)"><g transform="translate(0,64) scale(0.1,-0.1)"><path d="M212,527c-9,-10 -5,-39 14,-111l26,-97l-26,-96c-24,-85 -25,-98 -12,-111c13,-13 34,-4 179,82c181,106 196,118 178,140c-12,14 -332,206 -343,206c-3,0 -10,-6 -16,-13zM399,426c85,-50 156,-97 158,-103c4,-11 -307,-203 -328,-203c-13,0 -12,12 13,106l22,84h58c32,0 58,4 58,10c0,6 -26,10 -59,10h-59l-21,85c-25,98 -25,105 -8,104c6,0 81,-42 166,-93z"></path><path d="M60,440c0,-5 18,-10 40,-10c22,0 40,5 40,10c0,6 -18,10 -40,10c-22,0 -40,-4 -40,-10z"></path><path d="M100,380c0,-5 18,-10 40,-10c22,0 40,5 40,10c0,6 -18,10 -40,10c-22,0 -40,-4 -40,-10z"></path><path d="M120,320c0,-5 18,-10 40,-10c22,0 40,5 40,10c0,6 -18,10 -40,10c-22,0 -40,-4 -40,-10z"></path><path d="M100,260c0,-5 18,-10 40,-10c22,0 40,5 40,10c0,6 -18,10 -40,10c-22,0 -40,-4 -40,-10z"></path><path d="M60,200c0,-5 18,-10 40,-10c22,0 40,5 40,10c0,6 -18,10 -40,10c-22,0 -40,-4 -40,-10z"></path></g></g></g></svg>